<svg width="154" height="96" viewBox="0 0 154 96" fill="none" xmlns="http://www.w3.org/2000/svg">
<path d="M58.5479 95.7179C64.8931 95.7758 71.3037 92.8513 69.2105 86.6838C65.2856 75.0205 53.7072 76.9953 48.932 86.8807C46.1845 92.6255 52.2681 95.66 58.6133 95.7121L58.5479 95.7179ZM132.008 92.4459C140.12 92.527 147.839 85.5545 140.447 71.8586C162.819 72.2697 154.38 44.7504 137.569 52.4526C146.334 28.4774 110.945 24.7132 115.655 49.6033C94.5259 37.859 84.9754 56.6395 106.039 65.4304C78.4339 70.7409 101.198 99.6211 118.991 79.2827C119.056 88.0447 125.663 92.3764 132.008 92.4401V92.4459ZM125.271 69.739C121.15 69.739 117.813 66.7971 117.813 63.1719C117.813 59.5409 121.15 56.6048 125.271 56.6048C129.392 56.6048 132.663 59.5409 132.663 63.1719C132.663 66.7971 129.392 69.739 125.271 69.739ZM34.9332 68.9804C46.3153 69.0441 53.4456 55.9562 30.943 48.225C42.9138 33.8631 9.55235 20.7752 14.9818 45.0978C-12.9503 45.8507 3.73045 77.9566 20.2149 60.479C24.5977 66.5886 30.1579 68.9572 34.9332 68.9804ZM9.29071 18.8641C23.0278 18.5167 23.8781 8.09268 14.3276 1.43291C3.20714 -6.21136 -5.23132 19.2116 9.29071 18.8641Z" fill="#E62035" fill-opacity="0.2"/>
</svg>
