<svg width="30" height="31" viewBox="0 0 30 31" fill="none" xmlns="http://www.w3.org/2000/svg">
<path d="M12.5 18.791L18.9875 15.041L12.5 11.291V18.791ZM26.95 9.00352C27.1125 9.59102 27.225 10.3785 27.3 11.3785C27.3875 12.3785 27.425 13.241 27.425 13.991L27.5 15.041C27.5 17.7785 27.3 19.791 26.95 21.0785C26.6375 22.2035 25.9125 22.9285 24.7875 23.241C24.2 23.4035 23.125 23.516 21.475 23.591C19.85 23.6785 18.3625 23.716 16.9875 23.716L15 23.791C9.7625 23.791 6.5 23.591 5.2125 23.241C4.0875 22.9285 3.3625 22.2035 3.05 21.0785C2.8875 20.491 2.775 19.7035 2.7 18.7035C2.6125 17.7035 2.575 16.841 2.575 16.091L2.5 15.041C2.5 12.3035 2.7 10.291 3.05 9.00352C3.3625 7.87852 4.0875 7.15352 5.2125 6.84102C5.8 6.67852 6.875 6.56602 8.525 6.49102C10.15 6.40352 11.6375 6.36602 13.0125 6.36602L15 6.29102C20.2375 6.29102 23.5 6.49102 24.7875 6.84102C25.9125 7.15352 26.6375 7.87852 26.95 9.00352Z" fill="#666666"/>
</svg>
