<svg width="30" height="31" viewBox="0 0 30 31" fill="none" xmlns="http://www.w3.org/2000/svg">
<path d="M9.75 2.54102H20.25C24.25 2.54102 27.5 5.79102 27.5 9.79102V20.291C27.5 22.2138 26.7362 24.0579 25.3765 25.4175C24.0169 26.7772 22.1728 27.541 20.25 27.541H9.75C5.75 27.541 2.5 24.291 2.5 20.291V9.79102C2.5 7.8682 3.26384 6.02413 4.62348 4.66449C5.98311 3.30485 7.82718 2.54102 9.75 2.54102ZM9.5 5.04102C8.30653 5.04102 7.16193 5.51512 6.31802 6.35904C5.47411 7.20295 5 8.34754 5 9.54102V20.541C5 23.0285 7.0125 25.041 9.5 25.041H20.5C21.6935 25.041 22.8381 24.5669 23.682 23.723C24.5259 22.8791 25 21.7345 25 20.541V9.54102C25 7.05352 22.9875 5.04102 20.5 5.04102H9.5ZM21.5625 6.91602C21.9769 6.91602 22.3743 7.08064 22.6674 7.37366C22.9604 7.66669 23.125 8.06412 23.125 8.47852C23.125 8.89292 22.9604 9.29034 22.6674 9.58337C22.3743 9.8764 21.9769 10.041 21.5625 10.041C21.1481 10.041 20.7507 9.8764 20.4576 9.58337C20.1646 9.29034 20 8.89292 20 8.47852C20 8.06412 20.1646 7.66669 20.4576 7.37366C20.7507 7.08064 21.1481 6.91602 21.5625 6.91602ZM15 8.79102C16.6576 8.79102 18.2473 9.4495 19.4194 10.6216C20.5915 11.7937 21.25 13.3834 21.25 15.041C21.25 16.6986 20.5915 18.2883 19.4194 19.4604C18.2473 20.6325 16.6576 21.291 15 21.291C13.3424 21.291 11.7527 20.6325 10.5806 19.4604C9.40848 18.2883 8.75 16.6986 8.75 15.041C8.75 13.3834 9.40848 11.7937 10.5806 10.6216C11.7527 9.4495 13.3424 8.79102 15 8.79102ZM15 11.291C14.0054 11.291 13.0516 11.6861 12.3483 12.3894C11.6451 13.0926 11.25 14.0465 11.25 15.041C11.25 16.0356 11.6451 16.9894 12.3483 17.6927C13.0516 18.3959 14.0054 18.791 15 18.791C15.9946 18.791 16.9484 18.3959 17.6517 17.6927C18.3549 16.9894 18.75 16.0356 18.75 15.041C18.75 14.0465 18.3549 13.0926 17.6517 12.3894C16.9484 11.6861 15.9946 11.291 15 11.291Z" fill="#666666"/>
</svg>
